<svg version="1.1" xmlns="http://www.w3.org/2000/svg" xmlns:xlink="http://www.w3.org/1999/xlink" width="48px" height="48px" viewBox="0,0,256,256"><g fill="none" fill-rule="nonzero" stroke="none" stroke-width="1" stroke-linecap="butt" stroke-linejoin="miter" stroke-miterlimit="10" stroke-dasharray="" stroke-dashoffset="0" font-family="none" font-weight="none" font-size="none" text-anchor="none" style="mix-blend-mode: normal"><g transform="translate(0,5.33333) scale(5.33333,5.33333)"><path d="M12,17c-5.52285,0 -10,4.47715 -10,10c0,5.52285 4.47715,10 10,10c5.52285,0 10,-4.47715 10,-10c0,-5.52285 -4.47715,-10 -10,-10z" fill="#ffffff"></path><path d="M24,9c-6.62742,0 -12,5.37258 -12,12c0,6.62742 5.37258,12 12,12c6.62742,0 12,-5.37258 12,-12c0,-6.62742 -5.37258,-12 -12,-12z" fill="#ffffff"></path><path d="M37.5,20c-4.69442,0 -8.5,3.80558 -8.5,8.5c0,4.69442 3.80558,8.5 8.5,8.5c4.69442,0 8.5,-3.80558 8.5,-8.5c0,-4.69442 -3.80558,-8.5 -8.5,-8.5z" fill="#ffffff"></path><path d="M12,27h25v10h-25z" fill="#ffffff"></path><path d="M22,18h4v10h-4z" fill="#010411"></path><path d="M24,33l6,-7h-12z" fill="#010411"></path></g></g></svg>